<svg xmlns="http://www.w3.org/2000/svg" width="243.052" height="243" viewBox="0 0 243.052 243">
  <g id="Group_33" data-name="Group 33" transform="translate(-1637 -516)">
    <g id="Rectangle_47" data-name="Rectangle 47" transform="translate(1637 516)" fill="#fff" stroke="#707070" stroke-width="1" opacity="0">
      <rect width="243" height="243" stroke="none"/>
      <rect x="0.5" y="0.5" width="242" height="242" fill="none"/>
    </g>
    <g id="Sunny_Cloud" data-name="Sunny Cloud" transform="translate(809 60)">
      <g id="Group_11" data-name="Group 11" transform="translate(968.042 495.829) rotate(30)">
        <circle id="Sunny" cx="59.473" cy="59.473" r="59.473" fill="#ffe733"/>
        <circle id="Ellipse_14" data-name="Ellipse 14" cx="6.238" cy="6.238" r="6.238" transform="translate(35.87 26.068)" fill="#cb7c2c"/>
        <circle id="Ellipse_13" data-name="Ellipse 13" cx="6.238" cy="6.238" r="6.238" transform="translate(73.138 25.682)" fill="#cb7c2c"/>
        <path id="Path_15" data-name="Path 15" d="M20.372,2.3c1.349,3.14-4.469,9.981-9.981,9.981S-1.72,5.281.409,2.3,19.024-.843,20.372,2.3Z" transform="translate(50.159 34.168)" fill="#ff719c"/>
        <path id="Path_18" data-name="Path 18" d="M0,16.313s15.422-36.7,21.1,0" transform="translate(25.169 38.974) rotate(20)" fill="none" stroke="#cb7c2c" stroke-width="1"/>
        <path id="Path_17" data-name="Path 17" d="M0,0S15.422,36.7,21.1,0" transform="translate(101.561 54.304) rotate(160)" fill="none" stroke="#cb7c2c" stroke-width="1"/>
      </g>
      <g id="Union_1" data-name="Union 1" transform="translate(843 533)" fill="#fff">
        <path d="M 155.4318084716797 110.0006103515625 L 32.61149597167969 110.0006103515625 C 31.99221038818359 110.0006103515625 31.3664722442627 109.9790420532227 30.75168609619141 109.9365158081055 L 30.68149566650391 109.9316558837891 L 30.61128044128418 109.9366836547852 C 30.01873397827148 109.9791107177734 29.41568565368652 110.0006103515625 28.81890106201172 110.0006103515625 C 25.07759094238281 110.0006103515625 21.44747161865234 109.1793975830078 18.02937698364258 107.5597534179688 C 14.71906661987305 105.9911804199219 11.74399566650391 103.7433013916016 9.18678092956543 100.8784942626953 C 6.622305393218994 98.00556182861328 4.608138561248779 94.65808868408203 3.200233697891235 90.92908477783203 C 1.740257501602173 87.06215667724609 0.9999956488609314 82.95301818847656 0.9999956488609314 78.71580505371094 C 0.9999956488609314 74.47858428955078 1.740257501602173 70.36949157714844 3.200233697891235 66.502685546875 C 4.608138561248779 62.77377700805664 6.622281551361084 59.42639541625977 9.18675708770752 56.55356216430664 C 11.74394798278809 53.68889617919922 14.71904373168945 51.44111251831055 18.02935218811035 49.87261199951172 C 21.44742393493652 48.2530632019043 25.07756614685059 47.4318962097168 28.81890106201172 47.4318962097168 C 28.90113830566406 47.4318962097168 28.98223304748535 47.43230056762695 29.06428146362305 47.43310928344727 L 30.18997192382812 47.44411087036133 L 30.06816291809082 46.32496643066406 C 29.90275764465332 44.80511093139648 29.81890106201172 43.25439834594727 29.81890106201172 41.71589660644531 C 29.81890106201172 36.21475219726562 30.86061477661133 30.87896728515625 32.91511535644531 25.85680198669434 C 34.89885330200195 21.00753974914551 37.73847198486328 16.65277671813965 41.35504150390625 12.91349220275879 C 44.96937561035156 9.176539421081543 49.17721176147461 6.243039608001709 53.86168670654297 4.194444179534912 C 58.70873260498047 2.074753761291504 63.85783004760742 0.9999918341636658 69.16590118408203 0.9999918341636658 C 77.34918975830078 0.9999918341636658 85.19402313232422 3.574658393859863 91.85230255126953 8.445611000061035 C 95.06199645996094 10.79372978210449 97.90904235839844 13.61692047119141 100.3143310546875 16.83672904968262 C 102.7439727783203 20.08915901184082 104.6752777099609 23.6835880279541 106.0546646118164 27.52022933959961 L 106.5692825317383 28.95163536071777 L 107.6793746948242 27.91168212890625 C 112.2208786010742 23.65703964233398 118.1171112060547 21.31389617919922 124.2818984985352 21.31389617919922 C 127.5975189208984 21.31389617919922 130.8136138916016 21.97687339782715 133.8408508300781 23.28444480895996 C 136.7667083740234 24.5482063293457 139.3949737548828 26.35796737670898 141.652587890625 28.66344451904297 C 143.91162109375 30.9703483581543 145.685302734375 33.6568717956543 146.9243469238281 36.64837265014648 C 148.2074890136719 39.74637222290039 148.8581085205078 43.03804016113281 148.8581085205078 46.4318962097168 C 148.8581085205078 49.56230163574219 148.3018341064453 52.61603927612305 147.2047271728516 55.50832366943359 L 146.6909027099609 56.86299133300781 L 148.1397399902344 56.86299133300781 L 155.4318084716797 56.86299133300781 C 159.0189056396484 56.86299133300781 162.4982147216797 57.56529998779297 165.7730712890625 58.95044326782227 C 168.9367370605469 60.28853988647461 171.7782287597656 62.20437240600586 174.2185974121094 64.64468383789062 C 176.6589965820312 67.08503723144531 178.5749053955078 69.926513671875 179.9130401611328 73.09017944335938 C 181.2982635498047 76.3651123046875 182.0006103515625 79.84453582763672 182.0006103515625 83.43180084228516 C 182.0006103515625 87.01887512207031 181.2982635498047 90.49816131591797 179.9130401611328 93.77304077148438 C 178.5748748779297 96.93670654296875 176.6589965820312 99.77818298339844 174.2185974121094 102.2185897827148 C 171.7781829833984 104.6589889526367 168.9367065429688 106.5748748779297 165.7730407714844 107.9130401611328 C 162.4981689453125 109.2982559204102 159.0188751220703 110.0006103515625 155.4318084716797 110.0006103515625 Z" stroke="none"/>
        <path d="M 155.4318084716797 109.000602722168 C 158.8843078613281 109.000602722168 162.2325286865234 108.3248291015625 165.3834838867188 106.9920272827148 C 168.4279327392578 105.7042999267578 171.1625823974609 103.8603515625 173.511474609375 101.511474609375 C 175.8603515625 99.16257476806641 177.7042999267578 96.42792510986328 178.9920349121094 93.38347625732422 C 180.3248291015625 90.23252868652344 181.0006103515625 86.88430023193359 181.0006103515625 83.43180084228516 C 181.0006103515625 79.97910308837891 180.3248291015625 76.63072967529297 178.9920349121094 73.47975158691406 C 177.7042999267578 70.43527984619141 175.8603820800781 67.70065307617188 173.5115051269531 65.35179901123047 C 171.1626281738281 63.00300216674805 168.427978515625 61.15915298461914 165.3834991455078 59.87145233154297 C 162.2325744628906 58.53874969482422 158.8843536376953 57.86300277709961 155.4318084716797 57.86300277709961 L 148.1397552490234 57.86300277709961 L 145.2421112060547 57.86300277709961 L 146.2697601318359 55.15370178222656 C 147.3236999511719 52.37510299682617 147.8581085205078 49.44065093994141 147.8581085205078 46.43190002441406 C 147.8581085205078 43.17002487182617 147.2331085205078 40.00710296630859 146.0004577636719 37.03105163574219 C 144.8105316162109 34.15814971923828 143.1072998046875 31.57827568054199 140.9381103515625 29.36310195922852 C 138.771728515625 27.15080070495605 136.2504577636719 25.41452598571777 133.4443359375 24.20247650146484 C 130.5430297851562 22.94930076599121 127.4603271484375 22.31390190124512 124.2819061279297 22.31390190124512 C 118.371955871582 22.31390190124512 112.7185287475586 24.56107711791992 108.3630523681641 28.64145088195801 L 106.1428833007812 30.72140121459961 L 105.1136322021484 27.85855102539062 C 103.7677764892578 24.11517715454102 101.8835296630859 20.60825157165527 99.51318359375 17.43520164489746 C 97.16742706298828 14.29507637023926 94.39128112792969 11.54210090637207 91.26185607910156 9.252701759338379 C 84.77607727050781 4.507951259613037 77.13542938232422 2.000001430511475 69.16590881347656 2.000001430511475 C 63.99658203125 2.000001430511475 58.98228073120117 3.046576261520386 54.26235580444336 5.110676288604736 C 49.69790649414062 7.106776237487793 45.59710693359375 9.965926170349121 42.07385635375977 13.60872650146484 C 38.54608154296875 17.25617599487305 35.77605438232422 21.50440216064453 33.84065628051758 26.23542594909668 C 31.83558082580566 31.1368522644043 30.81890487670898 36.3452262878418 30.81890487670898 41.71590042114258 C 30.81890487670898 43.21832656860352 30.90080451965332 44.73265075683594 31.06230545043945 46.21680068969727 L 31.30595588684082 48.45550155639648 L 29.05413055419922 48.43307495117188 C 28.9754810333252 48.43230056762695 28.897705078125 48.43190002441406 28.81890487670898 48.43190002441406 C 25.22680473327637 48.43190002441406 21.74075508117676 49.22067642211914 18.45755577087402 50.77630233764648 C 15.26865482330322 52.28727722167969 12.40050506591797 54.455078125 9.932780265808105 57.21950149536133 C 7.450479984283447 60.00027465820312 5.500080108642578 63.24242782592773 4.135780334472656 66.85590362548828 C 2.71858024597168 70.60942840576172 2.00000524520874 74.59967803955078 2.00000524520874 78.71580505371094 C 2.00000524520874 82.83192443847656 2.71858024597168 86.82222747802734 4.135780334472656 90.57585144042969 C 5.500105381011963 94.18942260742188 7.450505256652832 97.43167877197266 9.932805061340332 100.2125778198242 C 12.4005298614502 102.9771270751953 15.26868057250977 105.1450271606445 18.45758056640625 106.6560745239258 C 21.74077987670898 108.2117767333984 25.22682952880859 109.000602722168 28.81890487670898 109.000602722168 C 29.39198112487793 109.000602722168 29.97102928161621 108.9799499511719 30.53993034362793 108.9392547607422 L 30.6802806854248 108.92919921875 L 30.82063102722168 108.9389266967773 C 31.41263008117676 108.979850769043 32.01515579223633 109.000602722168 32.61150360107422 109.000602722168 L 155.4318084716797 109.000602722168 M 155.4318084716797 111.000602722168 L 32.61150360107422 111.000602722168 C 31.96285438537598 111.000602722168 31.32012939453125 110.9782257080078 30.68268013000488 110.9341506958008 C 30.06603050231934 110.9782791137695 29.44550514221191 111.000602722168 28.81890487670898 111.000602722168 C 12.90240478515625 111.000602722168 5.175781097932486e-06 96.54570007324219 5.175781097932486e-06 78.71580505371094 C 5.175781097932486e-06 60.88590240478516 12.90240478515625 46.43190002441406 28.81890487670898 46.43190002441406 C 28.90438079833984 46.43190002441406 28.98872947692871 46.43232727050781 29.07405471801758 46.43317794799805 C 28.90558052062988 44.88507461547852 28.81890487670898 43.31052780151367 28.81890487670898 41.71590042114258 C 28.81890487670898 18.67680168151855 46.88280487060547 1.361083945994324e-06 69.16590881347656 1.361083945994324e-06 C 86.50450897216797 1.361083945994324e-06 101.2889022827148 11.30880165100098 106.9956817626953 27.1819019317627 C 111.5478515625 22.91725158691406 117.6174774169922 20.31390190124512 124.2819061279297 20.31390190124512 C 138.4074096679688 20.31390190124512 149.8581085205078 32.00760269165039 149.8581085205078 46.43190002441406 C 149.8581085205078 49.75712585449219 149.2492828369141 52.9378776550293 148.1397552490234 55.86300277709961 L 155.4318084716797 55.86300277709961 C 170.6571044921875 55.86300277709961 183.0006103515625 68.20560455322266 183.0006103515625 83.43180084228516 C 183.0006103515625 98.6571044921875 170.6571044921875 111.000602722168 155.4318084716797 111.000602722168 Z" stroke="none" fill="#cb7c2c"/>
      </g>
    </g>
  </g>
</svg>
