<svg xmlns="http://www.w3.org/2000/svg" width="243" height="243" viewBox="0 0 243 243">
  <g id="Group_34" data-name="Group 34" transform="translate(-1199 -673)">
    <g id="Rectangle_49" data-name="Rectangle 49" transform="translate(1199 673)" fill="#fff" stroke="#707070" stroke-width="1" opacity="0">
      <rect width="243" height="243" stroke="none"/>
      <rect x="0.5" y="0.5" width="242" height="242" fill="none"/>
    </g>
    <g id="Cloud" transform="translate(1210 728)" fill="#fff">
      <path d="M 186.9678039550781 132.0002136230469 L 39.09600067138672 132.0002136230469 C 38.36669540405273 132.0002136230469 37.62908554077148 131.975341796875 36.90364074707031 131.9263458251953 L 36.83516693115234 131.9217071533203 L 36.7667236328125 131.9264831542969 C 36.06464004516602 131.9754028320312 35.35097503662109 132.0002136230469 34.64550018310547 132.0002136230469 C 30.11722373962402 132.0002136230469 25.72372436523438 131.0096893310547 21.58700180053711 129.0561065673828 C 17.58283424377441 127.1651306152344 13.98464107513428 124.4557418823242 10.89241886138916 121.0031814575195 C 7.793057441711426 117.5426559448242 5.358973979949951 113.5110473632812 3.657779455184937 109.020263671875 C 1.894224047660828 104.3648223876953 1.000001788139343 99.41804504394531 1.000001788139343 94.31729125976562 C 1.000001788139343 89.21656799316406 1.894224047660828 84.26976776123047 3.657779455184937 79.61431884765625 C 5.358973979949951 75.12357330322266 7.793057441711426 71.09193420410156 10.89241886138916 67.63143157958984 C 13.98464107513428 64.17887878417969 17.58283424377441 61.46948623657227 21.58700180053711 59.57851409912109 C 25.72372436523438 57.62493133544922 30.11722373962402 56.63440322875977 34.64550018310547 56.63440322875977 C 34.74511337280273 56.63440322875977 34.84333419799805 56.63490295410156 34.94272232055664 56.63584899902344 L 36.06847381591797 56.64654541015625 L 35.94628143310547 55.52734756469727 C 35.74669647216797 53.69943237304688 35.64550018310547 51.8344612121582 35.64550018310547 49.98421096801758 C 35.64550018310547 43.36721038818359 36.90275192260742 36.94895935058594 39.3823356628418 30.90773773193359 C 41.77672576904297 25.07398796081543 45.20428085327148 19.83501625061035 49.56977844238281 15.33637714385986 C 53.93322372436523 10.8398494720459 59.01347351074219 7.309932708740234 64.66941833496094 4.844710350036621 C 70.52252960205078 2.293543577194214 76.74031066894531 1.00001585483551 83.15011596679688 1.00001585483551 C 93.0318603515625 1.00001585483551 102.5045547485352 4.09846019744873 110.5441436767578 9.960349082946777 C 114.4189453125 12.78557109832764 117.8558349609375 16.18229293823242 120.7593383789062 20.05615425109863 C 123.6919479370117 23.9688777923584 126.0230865478516 28.29298782348633 127.6879425048828 32.90837860107422 L 128.2025604248047 34.33501434326172 L 129.3110809326172 33.29998779296875 C 134.8082733154297 28.16723823547363 141.9461669921875 25.34048843383789 149.4098968505859 25.34048843383789 C 153.4239959716797 25.34048843383789 157.3176727294922 26.14046096801758 160.9827575683594 27.71815490722656 C 164.5245361328125 29.24279403686523 167.7058410644531 31.42593193054199 170.4383697509766 34.20695877075195 C 173.1720886230469 36.98921203613281 175.3184204101562 40.22920989990234 176.8177490234375 43.83695983886719 C 178.3702850341797 47.57282257080078 179.1575012207031 51.54204177856445 179.1575012207031 55.63440322875977 C 179.1575012207031 59.40912628173828 178.4844665527344 63.0914306640625 177.1570892333984 66.5791015625 L 176.6411437988281 67.93479156494141 L 178.0916900634766 67.93479156494141 L 186.9678039550781 67.93479156494141 C 191.2924957275391 67.93479156494141 195.4873657226562 68.78162384033203 199.4358673095703 70.45173645019531 C 203.2501678466797 72.06510162353516 206.6759796142578 74.37493133544922 209.6181640625 77.31712341308594 C 212.5603637695312 80.25932312011719 214.8702239990234 83.68515777587891 216.4835510253906 87.49943542480469 C 218.1536712646484 91.44792938232422 219.0005035400391 95.64279174804688 219.0005035400391 99.96749114990234 C 219.0005035400391 104.2924041748047 218.1536712646484 108.4874038696289 216.4835510253906 112.4359359741211 C 214.8702239990234 116.2502670288086 212.5603637695312 119.6760711669922 209.6181640625 122.6182098388672 C 206.676025390625 125.5603179931641 203.2501983642578 127.8701019287109 199.4358978271484 129.4833984375 C 195.4874114990234 131.1534271240234 191.2925567626953 132.0002136230469 186.9678039550781 132.0002136230469 Z" stroke="none"/>
      <path d="M 186.9678039550781 131.0001831054688 C 191.1579895019531 131.0001831054688 195.2218170166016 130.1799774169922 199.0463409423828 128.5623626708984 C 202.741455078125 126.9994812011719 206.0604248046875 124.7616577148438 208.9110717773438 121.9110717773438 C 211.7617492675781 119.0604553222656 213.9996337890625 115.7414779663086 215.5625762939453 112.0463943481445 C 217.1802825927734 108.2217788696289 218.0005187988281 104.1578674316406 218.0005187988281 99.96751403808594 C 218.0005187988281 95.77736663818359 217.1802825927734 91.71356964111328 215.5625762939453 87.88900756835938 C 213.9996337890625 84.19389343261719 211.7617492675781 80.87492370605469 208.9110717773438 78.02424621582031 C 206.0603942871094 75.17356872558594 202.7414245605469 72.93568420410156 199.0463104248047 71.37274932861328 C 195.2217559814453 69.75504302978516 191.157958984375 68.93480682373047 186.9678039550781 68.93480682373047 L 178.0917205810547 68.93480682373047 L 175.1905975341797 68.93480682373047 L 176.2225189208984 66.22341918945312 C 177.5064849853516 62.84968566894531 178.1575164794922 59.28704071044922 178.1575164794922 55.63439178466797 C 178.1575164794922 51.67442321777344 177.3960723876953 47.83433532714844 175.8943176269531 44.22074508666992 C 174.4443359375 40.73171615600586 172.3686981201172 37.59839248657227 169.7250518798828 34.90783309936523 C 167.0838470458984 32.2197151184082 164.0094909667969 30.10980415344238 160.5873718261719 28.63668823242188 C 157.0478973388672 27.11306953430176 153.2872467041016 26.34051132202148 149.4098968505859 26.34051132202148 C 142.2004547119141 26.34051132202148 135.304931640625 29.07168769836426 129.9935150146484 34.03092193603516 L 127.7764892578125 36.1009521484375 L 126.7472534179688 33.24771499633789 C 125.1160736083984 28.72568702697754 122.8322219848633 24.48918724060059 119.9591369628906 20.65592193603516 C 117.1153106689453 16.86165809631348 113.7494277954102 13.53501129150391 109.9549865722656 10.76836395263672 C 102.0876312255859 5.032069683074951 92.81866455078125 2.000010967254639 83.15010833740234 2.000010967254639 C 76.87863159179688 2.000010967254639 70.79528045654297 3.265540361404419 65.06898498535156 5.761393070220947 C 59.53298568725586 8.174334526062012 54.55975341796875 11.63012886047363 50.28742980957031 16.03277587890625 C 46.01101684570312 20.43962860107422 42.65328216552734 25.5720100402832 40.30742645263672 31.28742218017578 C 37.8775749206543 37.20756912231445 36.64551544189453 43.49806976318359 36.64551544189453 49.98418807983398 C 36.64551544189453 51.79842376708984 36.74472045898438 53.62692260742188 36.94036865234375 55.4188346862793 L 37.18484115600586 57.65777587890625 L 34.93269348144531 57.63583374023438 C 34.83666229248047 57.63489151000977 34.74175262451172 57.63439178466797 34.64551544189453 57.63439178466797 C 30.26604652404785 57.63439178466797 26.01619338989258 58.59271621704102 22.01404571533203 60.48274612426758 C 18.13122177124023 62.3163948059082 14.63998699188232 64.94603729248047 11.63731098175049 68.29859924316406 C 8.620428085327148 71.66703796386719 6.250369548797607 75.59339141845703 4.592957496643066 79.96856689453125 C 2.872398853302002 84.51042175292969 2.000016450881958 89.33804321289062 2.000016450881958 94.31730651855469 C 2.000016450881958 99.29656982421875 2.872398853302002 104.1241836547852 4.592957496643066 108.6660079956055 C 6.250369548797607 113.0412139892578 8.620428085327148 116.9675369262695 11.63731098175049 120.3359832763672 C 14.63998699188232 123.6885681152344 18.13122177124023 126.3181838989258 22.01404571533203 128.1518707275391 C 26.01619338989258 130.0418701171875 30.26604652404785 131.0001831054688 34.64551544189453 131.0001831054688 C 35.32807540893555 131.0001831054688 36.01836776733398 130.9762115478516 36.69722366333008 130.9288940429688 L 36.8341064453125 130.9193572998047 L 36.97104644775391 130.9286346435547 C 37.67395782470703 130.9761047363281 38.38889694213867 131.0001831054688 39.09601593017578 131.0001831054688 L 186.9678039550781 131.0001831054688 M 186.9678039550781 133.0001831054688 L 39.09601593017578 133.0001831054688 C 38.33657455444336 133.0001831054688 37.58283996582031 132.9745178222656 36.83622360229492 132.924072265625 C 36.11183929443359 132.9745330810547 35.38128280639648 133.0001831054688 34.64551544189453 133.0001831054688 C 15.51148700714111 133.0001831054688 1.647590215725359e-05 115.681510925293 1.647590215725359e-05 94.31730651855469 C 1.647590215725359e-05 72.95310211181641 15.51148700714111 55.63439178466797 34.64551544189453 55.63439178466797 C 34.7482795715332 55.63439178466797 34.84963226318359 55.63492202758789 34.95219421386719 55.63592147827148 C 34.74966430664062 53.78104019165039 34.64551544189453 51.89483261108398 34.64551544189453 49.98418807983398 C 34.64551544189453 22.37851142883301 56.36160659790039 1.094683466362767e-05 83.15010833740234 1.094683466362767e-05 C 103.994514465332 1.094683466362767e-05 121.7680130004883 13.54983425140381 128.6286010742188 32.56906890869141 C 134.1011352539062 27.45939254760742 141.3977203369141 24.34051132202148 149.4098968505859 24.34051132202148 C 166.3910980224609 24.34051132202148 180.1575164794922 38.35080337524414 180.1575164794922 55.63439178466797 C 180.1575164794922 59.6187744140625 179.4256286621094 63.42986297607422 178.0917205810547 66.93480682373047 L 186.9678039550781 66.93480682373047 C 205.2108154296875 66.93480682373047 220.0005187988281 81.72451019287109 220.0005187988281 99.96751403808594 C 220.0005187988281 118.2113952636719 205.2108154296875 133.0001831054688 186.9678039550781 133.0001831054688 Z" stroke="none" fill="#cb7c2c"/>
    </g>
  </g>
</svg>
