<svg xmlns="http://www.w3.org/2000/svg" width="243" height="243" viewBox="0 0 243 243">
  <g id="Group_35" data-name="Group 35" transform="translate(-1569 -817)">
    <g id="Rectangle_51" data-name="Rectangle 51" transform="translate(1569 817)" fill="#fff" stroke="#707070" stroke-width="1" opacity="0">
      <rect width="243" height="243" stroke="none"/>
      <rect x="0.5" y="0.5" width="242" height="242" fill="none"/>
    </g>
    <g id="rain" transform="translate(1078 650.921)">
      <rect id="Rectangle_11" data-name="Rectangle 11" width="194.723" height="60.132" rx="30.066" transform="translate(535.195 277.923)" fill="#969696"/>
      <ellipse id="Ellipse_10" data-name="Ellipse 10" cx="31.534" cy="35.209" rx="31.534" ry="35.209" transform="translate(529.677 267.638)" fill="#969696"/>
      <ellipse id="Ellipse_11" data-name="Ellipse 11" cx="44.148" cy="45.494" rx="44.148" ry="45.494" transform="translate(561.211 217)" fill="#969696"/>
      <ellipse id="Ellipse_12" data-name="Ellipse 12" cx="27.986" cy="28.483" rx="27.986" ry="28.483" transform="translate(637.681 239.154)" fill="#969696"/>
      <g id="Union_4" data-name="Union 4" transform="translate(496 237.079)" fill="#fff">
        <path d="M 169.9470062255859 119.9996185302734 L 35.56350708007812 119.9996185302734 C 34.89829635620117 119.9996185302734 34.2259521484375 119.9768524169922 33.56513595581055 119.9319305419922 L 33.49629592895508 119.9272766113281 L 33.4274787902832 119.9320907592773 C 32.78774261474609 119.9769058227539 32.13774108886719 119.9996185302734 31.49550628662109 119.9996185302734 C 27.39258575439453 119.9996185302734 23.41168975830078 119.1013793945312 19.66342735290527 117.3298797607422 C 16.03434753417969 115.6147232055664 12.77303218841553 113.1570129394531 9.970058441162109 110.0250396728516 C 7.159927368164062 106.8850402832031 4.952927112579346 103.2266464233398 3.410348176956177 99.1514892578125 C 1.810953497886658 94.92627716064453 1.000006079673767 90.43651580810547 1.000006079673767 85.80690765380859 C 1.000006079673767 81.17729949951172 1.810953497886658 76.68753814697266 3.410348176956177 72.46232604980469 C 4.952927112579346 68.38714599609375 7.159927368164062 64.72875213623047 9.970058441162109 61.58877563476562 C 12.77303218841553 58.4567756652832 16.03434753417969 55.99909210205078 19.66342735290527 54.28393173217773 C 23.41168975830078 52.51243209838867 27.39258575439453 51.61419677734375 31.49550628662109 51.61419677734375 C 31.58561134338379 51.61419677734375 31.67455863952637 51.61464309692383 31.76450538635254 51.61553955078125 L 32.8906364440918 51.62667083740234 L 32.76847839355469 50.50711822509766 C 32.58734893798828 48.84732818603516 32.49550628662109 47.15374755859375 32.49550628662109 45.47340774536133 C 32.49550628662109 39.46530151367188 33.63621520996094 33.6376953125 35.88595199584961 28.15248489379883 C 38.058349609375 22.85588073730469 41.16803359985352 18.09930229187012 45.12863922119141 14.01490688323975 C 49.08711242675781 9.932696342468262 53.69577026367188 6.728091239929199 58.82655715942383 4.490091323852539 C 64.13584899902344 2.174248933792114 69.77592468261719 1.000012159347534 75.59011077880859 1.000012159347534 C 84.55424499511719 1.000012159347534 93.14734649658203 3.812801599502563 100.4403991699219 9.134275436401367 C 103.9556884765625 11.69924926757812 107.0737152099609 14.78311729431152 109.7078475952148 18.30019569396973 C 112.3684768676758 21.8526439666748 114.4834289550781 25.77864456176758 115.9938735961914 29.96916961669922 L 116.5085067749023 31.39690780639648 L 117.6174011230469 30.3607234954834 C 122.597900390625 25.7066707611084 129.0645904541016 23.14359092712402 135.8262176513672 23.14359092712402 C 139.4629211425781 23.14359092712402 142.9905090332031 23.86890602111816 146.3110046386719 25.29935455322266 C 149.5199737548828 26.68177604675293 152.4024200439453 28.66132736206055 154.8783264160156 31.18303871154785 C 157.3554840087891 33.70601272583008 159.3003997802734 36.64411926269531 160.6590270996094 39.91566848754883 C 162.0659332275391 43.30348587036133 162.779296875 46.90301132202148 162.779296875 50.61419677734375 C 162.779296875 54.03732681274414 162.1694030761719 57.37667083740234 160.966552734375 60.53943252563477 L 160.4510650634766 61.89490509033203 L 161.9012451171875 61.89490509033203 L 169.9470062255859 61.89490509033203 C 173.8695831298828 61.89490509033203 177.6742706298828 62.66290664672852 181.2554016113281 64.17758941650391 C 184.7148742675781 65.64083099365234 187.8219757080078 67.73577880859375 190.4904479980469 70.40425109863281 C 193.1589202880859 73.07272338867188 195.2538757324219 76.17982482910156 196.7171173095703 79.63930511474609 C 198.2317962646484 83.22043609619141 198.9998016357422 87.02511596679688 198.9998016357422 90.94769287109375 C 198.9998016357422 94.87004089355469 198.2317962646484 98.67456817626953 196.7171173095703 102.2555618286133 C 195.2538757324219 105.7149353027344 193.1589202880859 108.8219604492188 190.490478515625 111.4903793334961 C 187.8219757080078 114.1587982177734 184.71484375 116.2537231445312 181.2554016113281 117.7169342041016 C 177.6742401123047 119.2316207885742 173.8695526123047 119.9996185302734 169.9470062255859 119.9996185302734 Z" stroke="none"/>
        <path d="M 169.9470062255859 118.9996185302734 C 173.7350006103516 118.9996185302734 177.4086303710938 118.2581939697266 180.8658447265625 116.7959365844727 C 184.2061157226562 115.3831405639648 187.2064056396484 113.3601989746094 189.7833709716797 110.7832717895508 C 192.3603210449219 108.2063522338867 194.38330078125 105.206169128418 195.7961120605469 101.8660125732422 C 197.2583770751953 98.408935546875 197.9998016357422 94.73548889160156 197.9998016357422 90.94769287109375 C 197.9998016357422 87.15969848632812 197.2583770751953 83.48606109619141 195.7961120605469 80.02885437011719 C 194.38330078125 76.68859100341797 192.3603210449219 73.68830108642578 189.7833557128906 71.11135101318359 C 187.2064056396484 68.53437805175781 184.2061157226562 66.51140594482422 180.8658447265625 65.09859466552734 C 177.4086303710938 63.63632965087891 173.7350006103516 62.89490509033203 169.9470062255859 62.89490509033203 L 161.9012451171875 62.89490509033203 L 159.0008544921875 62.89490509033203 L 160.0318756103516 60.1839599609375 C 161.1913757324219 57.1351432800293 161.779296875 53.9154052734375 161.779296875 50.61419677734375 C 161.779296875 47.03530120849609 161.0916595458984 43.56482696533203 159.7354736328125 40.29919815063477 C 158.4261627197266 37.14632797241211 156.5518951416016 34.31490707397461 154.1647644042969 31.88361740112305 C 151.7801666259766 29.45487976074219 149.0046691894531 27.54861831665039 145.9153747558594 26.21774864196777 C 142.7205657958984 24.84143257141113 139.3260803222656 24.14359092712402 135.8262176513672 24.14359092712402 C 129.3189849853516 24.14359092712402 123.0947723388672 26.61101150512695 118.3001403808594 31.09135437011719 L 116.0823974609375 33.16374969482422 L 115.0531387329102 30.30824851989746 C 113.5763244628906 26.21109199523926 111.5086135864258 22.37269592285156 108.9074554443359 18.89964294433594 C 106.3329238891602 15.46219635009766 103.2859039306641 12.44843292236328 99.85098266601562 9.94209098815918 C 92.73021697998047 4.746327877044678 84.34095001220703 2.000012159347534 75.59011077880859 2.000012159347534 C 69.91434478759766 2.000012159347534 64.40876770019531 3.146196365356445 59.22634887695312 5.406696319580078 C 54.21553421020508 7.592354297637939 49.71390151977539 10.72280120849609 45.84653091430664 14.71106433868408 C 41.97495269775391 18.70364379882812 38.93503189086914 23.35367012023926 36.81116485595703 28.53195953369141 C 34.61105728149414 33.89614486694336 33.49550628662109 39.59609222412109 33.49550628662109 45.47340774536133 C 33.49550628662109 47.11764526367188 33.58535003662109 48.77472305297852 33.76255798339844 50.39861679077148 L 34.00692749023438 52.63774871826172 L 31.75461196899414 52.61548614501953 C 31.6679801940918 52.61464309692383 31.58232116699219 52.61419677734375 31.49550628662109 52.61419677734375 C 27.54150581359863 52.61419677734375 23.70437431335449 53.48017120361328 20.09071731567383 55.18803787231445 C 16.58303260803223 56.84582901000977 13.4286642074585 59.22372436523438 10.71521663665771 62.25566864013672 C 7.987479686737061 65.3035888671875 5.844427108764648 68.85669708251953 4.345584869384766 72.81635284423828 C 2.789164066314697 76.92803955078125 2.000006198883057 81.29869842529297 2.000006198883057 85.80690765380859 C 2.000006198883057 90.31511688232422 2.789164066314697 94.68577575683594 4.345584869384766 98.79746246337891 C 5.844427108764648 102.7570877075195 7.987479686737061 106.3102264404297 10.71521663665771 109.3581466674805 C 13.4286642074585 112.3900909423828 16.58303260803223 114.7679824829102 20.09071731567383 116.4257736206055 C 23.70437431335449 118.1336441040039 27.54150581359863 118.9996185302734 31.49550628662109 118.9996185302734 C 32.11453247070312 118.9996185302734 32.74103164672852 118.9777221679688 33.35761260986328 118.9345397949219 L 33.49526977539062 118.9248809814453 L 33.63295364379883 118.9342498779297 C 34.27129745483398 118.9776153564453 34.92082214355469 118.9996185302734 35.56350708007812 118.9996185302734 L 169.9470062255859 118.9996185302734 M 169.9470062255859 120.9996185302734 L 35.56350708007812 120.9996185302734 C 34.86858367919922 120.9996185302734 34.18048095703125 120.9760665893555 33.49734878540039 120.9296417236328 C 32.83574295043945 120.9759826660156 32.16756057739258 120.9996185302734 31.49550628662109 120.9996185302734 C 14.10121631622314 120.9996185302734 6.081028914195485e-06 105.2433013916016 6.081028914195485e-06 85.80690765380859 C 6.081028914195485e-06 66.3704833984375 14.10121631622314 50.61419677734375 31.49550628662109 50.61419677734375 C 31.58892631530762 50.61419677734375 31.68113708496094 50.61466979980469 31.77437400817871 50.61559295654297 C 31.5902156829834 48.92803955078125 31.49550628662109 47.211669921875 31.49550628662109 45.47340774536133 C 31.49550628662109 20.35890769958496 51.23789978027344 1.216205782839097e-05 75.59011077880859 1.216205782839097e-05 C 94.5401611328125 1.216205782839097e-05 110.6978225708008 12.32719612121582 116.9346389770508 29.63006401062012 C 121.9094772338867 24.98132705688477 128.5426635742188 22.14359092712402 135.8262176513672 22.14359092712402 C 151.2639007568359 22.14359092712402 163.779296875 34.89030075073242 163.779296875 50.61419677734375 C 163.779296875 54.23904037475586 163.1139526367188 57.70619583129883 161.9012451171875 60.89490509033203 L 169.9470062255859 60.89490509033203 C 186.5447998046875 60.89490509033203 199.9998016357422 74.34990692138672 199.9998016357422 90.94769287109375 C 199.9998016357422 107.5445938110352 186.5447998046875 120.9996185302734 169.9470062255859 120.9996185302734 Z" stroke="none" fill="#cb7c2c"/>
      </g>
    </g>
  </g>
</svg>
