<svg xmlns="http://www.w3.org/2000/svg" width="243" height="243" viewBox="0 0 243 243">
  <g id="Group_36" data-name="Group 36" transform="translate(-946 -781)">
    <g id="Rectangle_52" data-name="Rectangle 52" transform="translate(946 781)" fill="#fff" stroke="#707070" stroke-width="1" opacity="0">
      <rect width="243" height="243" stroke="none"/>
      <rect x="0.5" y="0.5" width="242" height="242" fill="none"/>
    </g>
    <g id="rain" transform="translate(464 596.254)">
      <rect id="Rectangle_12" data-name="Rectangle 12" width="21.542" height="9.114" rx="4.557" transform="translate(523.86 359.835) rotate(-75)" fill="#84aaff"/>
      <rect id="Rectangle_16" data-name="Rectangle 16" width="21.542" height="9.114" rx="4.557" transform="translate(552.986 367.121) rotate(-75)" fill="#84aaff"/>
      <rect id="Rectangle_13" data-name="Rectangle 13" width="21.542" height="9.114" rx="4.557" transform="translate(516.087 387.967) rotate(-75)" fill="#84aaff"/>
      <rect id="Rectangle_20" data-name="Rectangle 20" width="10.771" height="9.114" rx="4.557" transform="translate(511.584 404.773) rotate(-75)" fill="#84aaff"/>
      <rect id="Rectangle_17" data-name="Rectangle 17" width="21.542" height="9.114" rx="4.557" transform="translate(583.157 368.761) rotate(-75)" fill="#84aaff"/>
      <rect id="Rectangle_15" data-name="Rectangle 15" width="21.542" height="9.114" rx="4.557" transform="translate(544.999 396.052) rotate(-75)" fill="#84aaff"/>
      <rect id="Rectangle_19" data-name="Rectangle 19" width="21.542" height="9.114" rx="4.557" transform="translate(569.038 420.387) rotate(-75)" fill="#84aaff"/>
      <rect id="Rectangle_18" data-name="Rectangle 18" width="10.771" height="9.114" rx="4.557" transform="translate(576.942 390.568) rotate(-75)" fill="#84aaff"/>
      <rect id="Rectangle_11" data-name="Rectangle 11" width="177.253" height="54.737" rx="27.369" transform="translate(531.679 272.458)" fill="#969696"/>
      <ellipse id="Ellipse_10" data-name="Ellipse 10" cx="28.705" cy="32.05" rx="28.705" ry="32.05" transform="translate(526.656 263.095)" fill="#969696"/>
      <ellipse id="Ellipse_11" data-name="Ellipse 11" cx="40.187" cy="41.413" rx="40.187" ry="41.413" transform="translate(555.361 217)" fill="#969696"/>
      <ellipse id="Ellipse_12" data-name="Ellipse 12" cx="25.476" cy="25.928" rx="25.476" ry="25.928" transform="translate(624.97 237.167)" fill="#969696"/>
      <g id="Union_5" data-name="Union 5" transform="translate(496 235.746)" fill="#fff">
        <path d="M 154.4309844970703 110.4997177124023 L 32.58449172973633 110.4997177124023 C 31.93069648742676 110.4997177124023 31.26967430114746 110.4760818481445 30.61976432800293 110.4294662475586 L 30.58326530456543 110.4268493652344 L 30.5467643737793 110.4295806884766 C 29.92335510253906 110.4761276245117 29.28903770446777 110.4997177124023 28.66140174865723 110.4997177124023 C 24.86715126037598 110.4997177124023 21.18596839904785 109.6624908447266 17.72017288208008 108.0112838745117 C 14.36792373657227 106.4142150878906 11.35619640350342 104.1266021728516 8.768651008605957 101.2120132446289 C 6.177287101745605 98.29314422607422 4.142377853393555 94.89310455322266 2.720446348190308 91.10637664794922 C 1.247059941291809 87.18264770507812 0.4999917149543762 83.01385498046875 0.4999917149543762 78.71580505371094 C 0.4999917149543762 74.41753387451172 1.247059941291809 70.24855804443359 2.720446348190308 66.32471466064453 C 4.142377853393555 62.53784942626953 6.177287101745605 59.13773727416992 8.768651008605957 56.21880722045898 C 11.35619640350342 53.30419158935547 14.36792373657227 51.01653289794922 17.72017288208008 49.41944122314453 C 21.18596839904785 47.76823806762695 24.86712837219238 46.93101119995117 28.66140174865723 46.93101119995117 C 28.74481010437012 46.93101119995117 28.8270149230957 46.93144226074219 28.91026496887207 46.93223571777344 L 29.47271919250488 46.93766784667969 L 29.41217422485352 46.37844085693359 C 29.24576377868652 44.84119033813477 29.16140174865723 43.27246475219727 29.16140174865723 41.71589660644531 C 29.16140174865723 36.14919281005859 30.20992279052734 30.74942016601562 32.27780914306641 25.66660118103027 C 34.27478790283203 20.75812339782715 37.13339996337891 16.35010147094727 40.77428817749023 12.56491947174072 C 44.41387939453125 8.781101226806641 48.65153884887695 5.810601234436035 53.36960601806641 3.735942125320435 C 58.25265121459961 1.588737607002258 63.4398307800293 0.5000103116035461 68.78701782226562 0.5000103116035461 C 77.03124237060547 0.5000103116035461 84.93405914306641 3.107669353485107 91.64108276367188 8.041055679321289 C 94.87306213378906 10.41835117340088 97.73969268798828 13.27648735046387 100.161376953125 16.5360107421875 C 102.6072387695312 19.82810211181641 104.5514221191406 23.46635055541992 105.9399490356445 27.3497142791748 L 106.197265625 28.06937408447266 L 106.7536087036133 27.54532814025879 C 111.3618087768555 23.20448684692383 117.3455123901367 20.81389617919922 123.6024017333984 20.81389617919922 C 126.9673538208008 20.81389617919922 130.2315368652344 21.49048805236816 133.3042602539062 22.82489585876465 C 136.2733154296875 24.11428260803223 138.9401245117188 25.96046447753906 141.2306060791016 28.31219291687012 C 143.5219879150391 30.66485214233398 145.3210601806641 33.40462493896484 146.5778350830078 36.45539855957031 C 147.8792419433594 39.61455535888672 148.5391082763672 42.97082901000977 148.5391082763672 46.43101119995117 C 148.5391082763672 49.62339782714844 147.9748382568359 52.73737335205078 146.8619689941406 55.68648910522461 L 146.6066741943359 56.36301040649414 L 147.3297576904297 56.36301040649414 L 154.4309844970703 56.36301040649414 C 158.0855560302734 56.36301040649414 161.6305389404297 57.0786247253418 164.9674224853516 58.48994064331055 C 168.1906890869141 59.85321426391602 171.0855865478516 61.80498886108398 173.5717010498047 64.29103088378906 C 176.0577697753906 66.77705383300781 178.0095672607422 69.67185211181641 179.3728790283203 72.89501190185547 C 180.7841949462891 76.23175811767578 181.4998168945312 79.77653503417969 181.4998168945312 83.43089294433594 C 181.4998168945312 87.08548736572266 180.7841949462891 90.63043975830078 179.3728485107422 93.96730804443359 C 178.0095672607422 97.19059753417969 176.0577697753906 100.0854873657227 173.5716705322266 102.5715789794922 C 171.0856018066406 105.0576705932617 168.1906890869141 107.0094680786133 164.9674224853516 108.3727569580078 C 161.6305389404297 109.7841033935547 158.0855865478516 110.4997177124023 154.4309844970703 110.4997177124023 Z" stroke="none"/>
        <path d="M 154.4309997558594 109.9997100830078 C 158.018310546875 109.9997100830078 161.4977416992188 109.2974014282227 164.7726440429688 107.9122543334961 C 167.9363250732422 106.5741577148438 170.7778015136719 104.6583480834961 173.2181091308594 102.218017578125 C 175.658447265625 99.7777099609375 177.5742645263672 96.93623352050781 178.912353515625 93.77254486083984 C 180.2975006103516 90.49763488769531 180.9998016357422 87.01821136474609 180.9998016357422 83.43090057373047 C 180.9998016357422 79.84380340576172 180.2975006103516 76.36456298828125 178.912353515625 73.08980560302734 C 177.5742645263672 69.92623138427734 175.658447265625 67.08485412597656 173.2181396484375 64.64459228515625 C 170.7778015136719 62.20430374145508 167.9363250732422 60.28851699829102 164.7726440429688 58.95042419433594 C 161.4977416992188 57.56530380249023 158.018310546875 56.86299514770508 154.4309997558594 56.86299514770508 L 147.3297882080078 56.86299514770508 L 145.8835906982422 56.86299514770508 L 146.3941802978516 55.50994491577148 C 147.4856872558594 52.61742401123047 148.0391082763672 49.56282806396484 148.0391082763672 46.43099594116211 C 148.0391082763672 43.03649520874023 147.3919219970703 39.74427795410156 146.1155242919922 36.64585113525391 C 144.8831634521484 33.65430450439453 143.1191101074219 30.96782684326172 140.8724212646484 28.66106605529785 C 138.6275177001953 26.35613632202148 136.0142059326172 24.546875 133.1050872802734 23.28351783752441 C 130.0955963134766 21.97656631469727 126.8984222412109 21.31389808654785 123.6024017333984 21.31389808654785 C 117.4734497070312 21.31389808654785 111.6115188598633 23.65618515014648 107.0964508056641 27.90927886962891 L 105.9838027954102 28.95737457275391 L 105.4691619873047 27.51806640625 C 104.0972595214844 23.68120765686035 102.1764221191406 20.08663749694824 99.76001739501953 16.83418464660645 C 97.36799621582031 13.61458969116211 94.53671264648438 10.79166030883789 91.34480285644531 8.443827629089355 C 84.72425842285156 3.574018001556396 76.92387390136719 0.9999940991401672 68.78699493408203 0.9999940991401672 C 63.50954437255859 0.9999940991401672 58.39009094238281 2.074494123458862 53.57085418701172 4.193636894226074 C 48.91287612915039 6.241875171661377 44.72873306274414 9.174994468688965 41.13463973999023 12.91151809692383 C 37.53794860839844 16.65077972412109 34.71390151977539 21.00558853149414 32.74094772338867 25.85501861572266 C 30.69751930236816 30.87773132324219 29.66140174865723 36.21408843994141 29.66140174865723 41.71590042114258 C 29.66140174865723 43.25447082519531 29.74478149414062 44.80508804321289 29.90925788879395 46.32466125488281 L 30.03030586242676 47.44294738769531 L 28.90551948547363 47.43220901489258 C 28.82387733459473 47.43142318725586 28.74323463439941 47.43099594116211 28.66140174865723 47.43099594116211 C 24.942138671875 47.43099594116211 21.33333015441895 48.25187683105469 17.93523406982422 49.87082672119141 C 14.64371013641357 51.43896865844727 11.68544864654541 53.68642425537109 9.14256763458252 56.55075454711914 C 6.592067718505859 59.42366027832031 4.588829517364502 62.77123260498047 3.188543558120728 66.50045013427734 C 1.736329436302185 70.367919921875 0.9999960660934448 74.47775268554688 0.9999960660934448 78.71580505371094 C 0.9999960660934448 82.95361328125 1.736329436302185 87.06327819824219 3.188543558120728 90.93061065673828 C 4.588829517364502 94.65972900390625 6.592067718505859 98.00720977783203 9.14256763458252 100.8800659179688 C 11.68544864654541 103.7443237304688 14.64373397827148 105.9917526245117 17.93521118164062 107.5598983764648 C 21.33333015441895 109.178825378418 24.942138671875 109.9997100830078 28.66140174865723 109.9997100830078 C 29.27661514282227 109.9997100830078 29.89842414855957 109.9765930175781 30.50956726074219 109.9309692382812 L 30.58254432678223 109.9255142211914 L 30.65554428100586 109.9307556152344 C 31.29337692260742 109.9765167236328 31.94235229492188 109.9997100830078 32.58449554443359 109.9997100830078 L 154.4309997558594 109.9997100830078 M 154.4309997558594 110.9997100830078 L 32.58449554443359 110.9997100830078 C 31.91166305541992 110.9997100830078 31.24475860595703 110.9755859375 30.5839958190918 110.9281845092773 C 29.94830513000488 110.9756393432617 29.30775833129883 110.9997100830078 28.66140174865723 110.9997100830078 C 12.83221054077148 110.9997100830078 -3.944033778680023e-06 96.54570770263672 -3.944033778680023e-06 78.71580505371094 C -3.944033778680023e-06 60.88499450683594 12.83221054077148 46.43099594116211 28.66140174865723 46.43099594116211 C 28.74642372131348 46.43099594116211 28.83023452758789 46.43144607543945 28.91506767272949 46.43225479125977 C 28.74752044677734 44.88423156738281 28.66140174865723 43.31047058105469 28.66140174865723 41.71590042114258 C 28.66140174865723 18.67680358886719 46.62630462646484 -5.916050668020034e-06 68.78699493408203 -5.916050668020034e-06 C 86.03176116943359 -5.916050668020034e-06 100.7352066040039 11.3082799911499 106.4107818603516 27.18137550354004 C 110.937873840332 22.91694641113281 116.9740676879883 20.31389808654785 123.6024017333984 20.31389808654785 C 137.6504974365234 20.31389808654785 149.0391082763672 32.00671005249023 149.0391082763672 46.43099594116211 C 149.0391082763672 49.75711441040039 148.4338531494141 52.93716049194336 147.3297882080078 55.86299514770508 L 154.4309997558594 55.86299514770508 C 169.6572113037109 55.86299514770508 181.9998016357422 68.20561218261719 181.9998016357422 83.43090057373047 C 181.9998016357422 98.65711212158203 169.6572113037109 110.9997100830078 154.4309997558594 110.9997100830078 Z" stroke="none" fill="#cb7c2c"/>
      </g>
    </g>
  </g>
</svg>
