<svg xmlns="http://www.w3.org/2000/svg" width="243" height="243" viewBox="0 0 243 243">
  <g id="Group_31" data-name="Group 31" transform="translate(-1137 -131)">
    <rect id="Rectangle_48" data-name="Rectangle 48" width="243" height="243" transform="translate(1137 131)" fill="#fff" opacity="0"/>
    <g id="Group_29" data-name="Group 29" transform="translate(-1622.04 -2714.259)">
      <g id="sunny_rain" data-name="sunny rain" transform="translate(2766.04 2912.478)">
        <g id="thunderstorm" transform="translate(7.785 80.875)">
          <rect id="Rectangle_12" data-name="Rectangle 12" width="14.733" height="6.233" rx="3.117" transform="translate(8.396 14.231) rotate(-75)" fill="#84aaff"/>
          <rect id="Rectangle_16" data-name="Rectangle 16" width="14.733" height="6.233" rx="3.117" transform="translate(28.317 19.215) rotate(-75)" fill="#84aaff"/>
          <rect id="Rectangle_13" data-name="Rectangle 13" width="14.733" height="6.233" rx="3.117" transform="translate(3.08 33.472) rotate(-75)" fill="#84aaff"/>
          <rect id="Rectangle_20" data-name="Rectangle 20" width="7.367" height="6.233" rx="3.117" transform="translate(0 44.966) rotate(-75)" fill="#84aaff"/>
          <rect id="Rectangle_17" data-name="Rectangle 17" width="14.733" height="6.233" rx="3.117" transform="translate(48.952 20.336) rotate(-75)" fill="#84aaff"/>
          <rect id="Rectangle_15" data-name="Rectangle 15" width="14.733" height="6.233" rx="3.117" transform="translate(22.854 39.002) rotate(-75)" fill="#84aaff"/>
          <rect id="Rectangle_19" data-name="Rectangle 19" width="14.733" height="6.233" rx="3.117" transform="translate(39.295 55.646) rotate(-75)" fill="#84aaff"/>
          <rect id="Rectangle_18" data-name="Rectangle 18" width="7.367" height="6.233" rx="3.117" transform="translate(44.701 35.251) rotate(-75)" fill="#84aaff"/>
        </g>
        <g id="Sunny_Cloud" data-name="Sunny Cloud" transform="translate(0 0)">
          <ellipse id="Ellipse_4" data-name="Ellipse 4" cx="40.5" cy="41" rx="40.5" ry="41" transform="translate(59 -0.219)" fill="#ffe733"/>
          <path id="Union_1" data-name="Union 1" d="M22.293,76q-.713,0-1.413-.052Q20.209,76,19.527,76C8.743,76,0,66.1,0,53.9s8.743-22.1,19.527-22.1H19.7a30.148,30.148,0,0,1-.173-3.229C19.527,12.788,31.767,0,46.867,0,58.615,0,68.633,7.743,72.5,18.611a16.98,16.98,0,0,1,11.713-4.7c9.571,0,17.33,8.006,17.33,17.882a18.344,18.344,0,0,1-1.164,6.457h4.745a18.876,18.876,0,0,1,0,37.752Z" transform="translate(0 8.781)" fill="#fff"/>
        </g>
      </g>
      <g id="Sunny_Cloud-2" data-name="Sunny Cloud" transform="translate(2766.04 2890.953)">
        <g id="Group_11" data-name="Group 11" transform="translate(88.828 0) rotate(30)">
          <path id="Path_18" data-name="Path 18" d="M23.1,24.682c-6.218-55.534-23.1,0-23.1,0Z" transform="translate(8.352 0)" fill="#ffe733"/>
          <path id="Path_20" data-name="Path 20" d="M10.036,0C40.052,20.922,0,15.431,0,15.431Z" transform="matrix(0.454, -0.891, 0.891, 0.454, 66.758, 39.876)" fill="#ffe733"/>
          <circle id="Sunny" cx="40.517" cy="40.517" r="40.517" transform="translate(0 7.364)" fill="#ffe733"/>
          <circle id="Ellipse_14" data-name="Ellipse 14" cx="4.25" cy="4.25" r="4.25" transform="translate(24.437 25.123)" fill="#cb7c2c"/>
          <circle id="Ellipse_13" data-name="Ellipse 13" cx="4.25" cy="4.25" r="4.25" transform="translate(49.826 24.86)" fill="#cb7c2c"/>
          <path id="Path_15" data-name="Path 15" d="M13.879,1.565c.919,2.139-3.044,6.8-6.8,6.8s-8.25-4.767-6.8-6.8S12.96-.574,13.879,1.565Z" transform="translate(34.171 30.642)" fill="#ff719c"/>
        </g>
        <g id="Union_1-2" data-name="Union 1" transform="translate(0 30.306)" fill="#fff">
          <path d="M 105.1245040893555 75.00050354003906 L 22.29300308227539 75.00050354003906 C 21.84768676757812 75.00050354003906 21.39696884155273 74.98384857177734 20.95340347290039 74.95101928710938 L 20.87783622741699 74.94541931152344 L 20.80230331420898 74.95127105712891 C 20.38083648681641 74.98393249511719 19.95186996459961 75.00050354003906 19.52730369567871 75.00050354003906 C 17.04180335998535 75.00050354003906 14.62976932525635 74.44902038574219 12.35823631286621 73.36136627197266 C 10.15446949005127 72.30616760253906 8.173003196716309 70.79298400878906 6.468852996826172 68.86385345458984 C 4.756803035736084 66.92576599121094 3.411836385726929 64.66677093505859 2.471286296844482 62.14956665039062 C 1.495019674301147 59.53672027587891 1.000002980232239 56.75968551635742 1.000002980232239 53.89560317993164 C 1.000002980232239 51.03130340576172 1.495019674301147 48.25413513183594 2.471286296844482 45.64125061035156 C 3.411819696426392 43.12405014038086 4.756786346435547 40.86505126953125 6.468836307525635 38.92701721191406 C 8.172969818115234 36.99796676635742 10.1544361114502 35.4848518371582 12.35820293426514 34.42971801757812 C 14.62973594665527 33.3421516418457 17.04176902770996 32.79070281982422 19.52730369567871 32.79070281982422 C 19.58183670043945 32.79070281982422 19.6356029510498 32.79096984863281 19.69001960754395 32.79151916503906 L 20.8148365020752 32.8028678894043 L 20.69437026977539 31.68446922302246 C 20.58351898193359 30.6552677154541 20.52730369567871 29.6048526763916 20.52730369567871 28.56240081787109 C 20.52730369567871 24.83578491210938 21.22555351257324 21.22151756286621 22.60265350341797 17.82000160217285 C 23.93186950683594 14.53673553466797 25.83432006835938 11.58853530883789 28.25712013244629 9.05730152130127 C 30.67700386047363 6.529135227203369 33.49372100830078 4.544751644134521 36.62900161743164 3.159285068511963 C 39.87143707275391 1.726485133171082 43.31585311889648 1.000001788139343 46.86660385131836 1.000001788139343 C 52.34086990356445 1.000001788139343 57.58928680419922 2.74075174331665 62.04441833496094 6.034068584442139 C 64.19370269775391 7.622835159301758 66.10031890869141 9.533318519592285 67.71131896972656 11.71243476867676 C 69.3392333984375 13.91443538665771 70.63333892822266 16.34818458557129 71.55768585205078 18.94608497619629 L 72.07231903076172 20.39250183105469 L 73.18727111816406 19.33710098266602 C 76.20417022705078 16.4813346862793 80.11983489990234 14.90860176086426 84.21300506591797 14.90860176086426 C 88.56909942626953 14.90860176086426 92.66615295410156 16.66071891784668 95.74942016601562 19.84220123291016 C 98.84086608886719 23.03213500976562 100.5434036254883 27.2755184173584 100.5434036254883 31.79070091247559 C 100.5434036254883 33.89700317382812 100.1731338500977 35.95137023925781 99.44288635253906 37.89676666259766 L 98.93560028076172 39.24820327758789 L 100.3791046142578 39.24820327758789 L 105.1245040893555 39.24820327758789 C 109.8992538452148 39.24820327758789 114.3882217407227 41.10760116577148 117.7645034790039 44.48390197753906 C 121.1408004760742 47.86018371582031 123.0002059936523 52.34915161132812 123.0002059936523 57.1239013671875 C 123.0002059936523 61.8990364074707 121.1407852172852 66.38829803466797 117.7645034790039 69.76470184326172 C 114.3882522583008 73.14106750488281 109.899284362793 75.00050354003906 105.1245040893555 75.00050354003906 Z" stroke="none"/>
          <path d="M 105.1245040893555 74.00050354003906 C 109.6321792602539 74.00050354003906 113.8700103759766 72.24508666992188 117.0573959350586 69.0576171875 C 120.2448120117188 65.87008666992188 122.0002136230469 61.63194274902344 122.0002136230469 57.12390518188477 C 122.0002136230469 52.61626815795898 120.2448272705078 48.37841415405273 117.0574111938477 45.19099807739258 C 113.8699951171875 42.00357818603516 109.6321411132812 40.24819564819336 105.1245040893555 40.24819564819336 L 100.3791046142578 40.24819564819336 L 97.49208831787109 40.24819564819336 L 98.50668334960938 37.54534149169922 C 99.19461059570312 35.71268844604492 99.54341125488281 33.77656173706055 99.54341125488281 31.79070663452148 C 99.54341125488281 27.53672409057617 97.94097900390625 23.54048728942871 95.03131866455078 20.53812408447266 C 92.13806915283203 17.55272483825684 88.29606628417969 15.90859699249268 84.2130126953125 15.90859699249268 C 80.37664794921875 15.90859699249268 76.70510101318359 17.38410568237305 73.87470245361328 20.0633430480957 L 71.64481353759766 22.17414283752441 L 70.61552429199219 19.28130722045898 C 69.72421264648438 16.77621459960938 68.47655487060547 14.42968845367432 66.90721130371094 12.30690670013428 C 65.35533905029297 10.20777893066406 63.51926803588867 8.367852210998535 61.44999313354492 6.838197231292725 C 57.16817474365234 3.673015356063843 52.12532043457031 1.99999725818634 46.86659240722656 1.99999725818634 C 43.4559211730957 1.99999725818634 40.14748382568359 2.697778940200806 37.03319549560547 4.073960781097412 C 34.01815795898438 5.406288146972656 31.30850219726562 7.315560817718506 28.97953987121582 9.748761177062988 C 26.64468574523926 12.18810653686523 24.81104850769043 15.02990627288818 23.52957534790039 18.19527053833008 C 22.20095825195312 21.47699737548828 21.52730369567871 24.96501541137695 21.52730369567871 28.56239700317383 C 21.52730369567871 29.56917953491211 21.58157539367676 30.58357810974121 21.68861198425293 31.57737922668457 L 21.92946624755859 33.81339645385742 L 19.68061256408691 33.79146957397461 C 19.62933921813965 33.79096221923828 19.57868576049805 33.79070663452148 19.52730369567871 33.79070663452148 C 9.862703323364258 33.79070663452148 1.999993920326233 42.80972290039062 1.999993920326233 53.89559555053711 C 1.999993920326233 64.98149108886719 9.862703323364258 74.00050354003906 19.52730369567871 74.00050354003906 C 19.92622947692871 74.00050354003906 20.32919311523438 73.98493957519531 20.72501182556152 73.95426940917969 L 20.87608528137207 73.94255828857422 L 21.02721214294434 73.95374298095703 C 21.44641304016113 73.98477935791016 21.8723030090332 74.00050354003906 22.29301261901855 74.00050354003906 L 105.1245040893555 74.00050354003906 M 105.1245040893555 76.00050354003906 L 22.29301261901855 76.00050354003906 C 21.81770324707031 76.00050354003906 21.34604835510254 75.98281860351562 20.87957572937012 75.94828796386719 C 20.43248558044434 75.98294067382812 19.98215675354004 76.00050354003906 19.52730369567871 76.00050354003906 C 8.742593765258789 76.00050354003906 -6.094082891650032e-06 66.10319519042969 -6.094082891650032e-06 53.89559555053711 C -6.094082891650032e-06 41.68710708618164 8.742593765258789 31.79070663452148 19.52730369567871 31.79070663452148 C 19.58522987365723 31.79070663452148 19.64232063293457 31.79099655151367 19.70012092590332 31.79156112670898 C 19.58595848083496 30.73163414001465 19.52730369567871 29.65419769287109 19.52730369567871 28.56239700317383 C 19.52730369567871 12.78810596466064 31.76730346679688 -2.775434950308409e-06 46.86659240722656 -2.775434950308409e-06 C 58.61523056030273 -2.775434950308409e-06 68.63294219970703 7.742815494537354 72.49980926513672 18.61087036132812 C 75.58442687988281 15.69099712371826 79.69715881347656 13.90859699249268 84.2130126953125 13.90859699249268 C 93.78450012207031 13.90859699249268 101.5434112548828 21.91499710083008 101.5434112548828 31.79070663452148 C 101.5434112548828 34.06754302978516 101.1309356689453 36.24530792236328 100.3791046142578 38.24819564819336 L 105.1245040893555 38.24819564819336 C 115.5492095947266 38.24819564819336 124.0002136230469 46.69919586181641 124.0002136230469 57.12390518188477 C 124.0002136230469 67.54950714111328 115.5492095947266 76.00050354003906 105.1245040893555 76.00050354003906 Z" stroke="none" fill="#cb7c2c"/>
        </g>
      </g>
      <g id="rainbow" transform="translate(2955.827 2877.062) rotate(62)">
        <path id="Path_22" data-name="Path 22" d="M0,70.55H8.5A62.119,62.119,0,0,1,70.55,8.5V0A70.55,70.55,0,0,0,0,70.55Z" transform="translate(0 0)" fill="red"/>
        <path id="Path_23" data-name="Path 23" d="M0,62.05H8.5A53.607,53.607,0,0,1,62.05,8.5V0A62.119,62.119,0,0,0,0,62.05Z" transform="translate(8.5 8.5)" fill="#ffc426"/>
        <path id="Path_24" data-name="Path 24" d="M0,36.55H8.5A28.186,28.186,0,0,1,25.058,10.966,27.659,27.659,0,0,1,36.55,8.5V0A36.588,36.588,0,0,0,0,36.55Z" transform="translate(34 34)" fill="#7dea3a"/>
        <path id="Path_25" data-name="Path 25" d="M0,53.55H8.5A45.1,45.1,0,0,1,53.55,8.5V0A53.607,53.607,0,0,0,0,53.55Z" transform="translate(17 17)" fill="#ffff1d"/>
        <path id="Path_26" data-name="Path 26" d="M0,45.05H8.5A36.588,36.588,0,0,1,45.05,8.5V0A45.1,45.1,0,0,0,0,45.05Z" transform="translate(25.5 25.5)" fill="#70efef"/>
      </g>
    </g>
  </g>
</svg>
