<svg xmlns="http://www.w3.org/2000/svg" width="257" height="248.326" viewBox="0 0 257 248.326">
  <g id="thunderstorm" transform="translate(-496 -217)">
    <rect id="Rectangle_12" data-name="Rectangle 12" width="26" height="11" rx="5.5" transform="translate(529.625 389.395) rotate(-75)" fill="#84aaff"/>
    <rect id="Rectangle_16" data-name="Rectangle 16" width="26" height="11" rx="5.5" transform="translate(564.78 398.189) rotate(-75)" fill="#84aaff"/>
    <rect id="Rectangle_13" data-name="Rectangle 13" width="26" height="11" rx="5.5" transform="translate(520.245 423.349) rotate(-75)" fill="#84aaff"/>
    <rect id="Rectangle_20" data-name="Rectangle 20" width="13" height="11" rx="5.5" transform="translate(514.809 443.634) rotate(-75)" fill="#84aaff"/>
    <rect id="Rectangle_17" data-name="Rectangle 17" width="26" height="11" rx="5.5" transform="translate(601.195 400.169) rotate(-75)" fill="#84aaff"/>
    <rect id="Rectangle_15" data-name="Rectangle 15" width="26" height="11" rx="5.5" transform="translate(555.14 433.108) rotate(-75)" fill="#84aaff"/>
    <rect id="Rectangle_19" data-name="Rectangle 19" width="26" height="11" rx="5.5" transform="translate(584.154 462.48) rotate(-75)" fill="#84aaff"/>
    <rect id="Rectangle_18" data-name="Rectangle 18" width="13" height="11" rx="5.5" transform="translate(593.693 426.489) rotate(-75)" fill="#84aaff"/>
    <rect id="Rectangle_11" data-name="Rectangle 11" width="213.937" height="66.065" rx="33.033" transform="translate(539.063 283.935)" fill="#969696"/>
    <ellipse id="Ellipse_10" data-name="Ellipse 10" cx="34.646" cy="38.683" rx="34.646" ry="38.683" transform="translate(533 272.634)" fill="#969696"/>
    <ellipse id="Ellipse_11" data-name="Ellipse 11" cx="48.504" cy="49.984" rx="48.504" ry="49.984" transform="translate(567.646 217)" fill="#969696"/>
    <ellipse id="Ellipse_12" data-name="Ellipse 12" cx="30.748" cy="31.294" rx="30.748" ry="31.294" transform="translate(651.662 241.34)" fill="#969696"/>
    <rect id="Rectangle_10" data-name="Rectangle 10" width="213.937" height="66.065" rx="33.033" transform="translate(502.063 305.935)" fill="#fff"/>
    <ellipse id="Ellipse_7" data-name="Ellipse 7" cx="34.646" cy="38.683" rx="34.646" ry="38.683" transform="translate(496 294.634)" fill="#fff"/>
    <ellipse id="Ellipse_8" data-name="Ellipse 8" cx="48.504" cy="49.984" rx="48.504" ry="49.984" transform="translate(530.646 239)" fill="#fff"/>
    <ellipse id="Ellipse_9" data-name="Ellipse 9" cx="30.748" cy="31.294" rx="30.748" ry="31.294" transform="translate(614.662 263.34)" fill="#fff"/>
    <g id="Group_4" data-name="Group 4" transform="translate(121 -338)">
      <g id="flash" transform="translate(436 679)">
        <g id="Group_3" data-name="Group 3" transform="translate(0)">
          <path id="Path_12" data-name="Path 12" d="M118.391,29.874H97.937L109.63,0H83.149L65.391,52.88h21.84L82,87.792ZM73.724,46.012,86.87,6.868h13.889L89.065,36.741h17.966L91.642,61.232l2.282-15.22h-20.2Z" transform="translate(-65.391)" fill="#ffe733"/>
        </g>
      </g>
      <path id="Path_13" data-name="Path 13" d="M2473.129,2011.761l16.437-40.88h19.992l-15.185,30.567H2516.9l-21.546,27.54-2.095,2.006,3.131-18.424h-23.257Z" transform="translate(-2032.927 -1286.399)" fill="#ffe733"/>
    </g>
  </g>
</svg>
