<svg xmlns="http://www.w3.org/2000/svg" width="393.438" height="306.265" viewBox="0 0 393.438 306.265">
  <g id="Group_29" data-name="Group 29" transform="translate(-2766 -2877.062)">
    <g id="sunny_rain" data-name="sunny rain" transform="translate(2228 2727)">
      <g id="thunderstorm" transform="translate(37 -9)">
        <rect id="Rectangle_12" data-name="Rectangle 12" width="26" height="11" rx="5.5" transform="translate(529.625 389.395) rotate(-75)" fill="#84aaff"/>
        <rect id="Rectangle_16" data-name="Rectangle 16" width="26" height="11" rx="5.5" transform="translate(564.78 398.189) rotate(-75)" fill="#84aaff"/>
        <rect id="Rectangle_13" data-name="Rectangle 13" width="26" height="11" rx="5.5" transform="translate(520.245 423.349) rotate(-75)" fill="#84aaff"/>
        <rect id="Rectangle_20" data-name="Rectangle 20" width="13" height="11" rx="5.5" transform="translate(514.809 443.634) rotate(-75)" fill="#84aaff"/>
        <rect id="Rectangle_17" data-name="Rectangle 17" width="26" height="11" rx="5.5" transform="translate(601.195 400.169) rotate(-75)" fill="#84aaff"/>
        <rect id="Rectangle_15" data-name="Rectangle 15" width="26" height="11" rx="5.5" transform="translate(555.14 433.108) rotate(-75)" fill="#84aaff"/>
        <rect id="Rectangle_19" data-name="Rectangle 19" width="26" height="11" rx="5.5" transform="translate(584.154 462.48) rotate(-75)" fill="#84aaff"/>
        <rect id="Rectangle_18" data-name="Rectangle 18" width="13" height="11" rx="5.5" transform="translate(593.693 426.489) rotate(-75)" fill="#84aaff"/>
      </g>
      <g id="Sunny_Cloud" data-name="Sunny Cloud" transform="translate(-305 -310)">
        <circle id="Ellipse_4" data-name="Ellipse 4" cx="71.5" cy="71.5" r="71.5" transform="translate(947 523)" fill="#ffe733"/>
        <path id="Union_1" data-name="Union 1" d="M39.1,133q-1.139,0-2.26-.076Q35.75,133,34.646,133C15.512,133,0,115.682,0,94.317S15.512,55.634,34.646,55.634l.307,0a52.059,52.059,0,0,1-.307-5.652C34.646,22.378,56.362,0,83.15,0c20.844,0,38.618,13.55,45.479,32.569A30.347,30.347,0,0,1,149.41,24.34c16.981,0,30.748,14.01,30.748,31.294a31.711,31.711,0,0,1-2.066,11.3h8.876a33.033,33.033,0,1,1,0,66.065Z" transform="translate(843 540)" fill="#fff"/>
      </g>
    </g>
    <g id="Sunny_Cloud-2" data-name="Sunny Cloud" transform="translate(1923 2417)">
      <g id="Group_11" data-name="Group 11" transform="translate(806.715 343.054) rotate(30)">
        <path id="Path_18" data-name="Path 18" d="M2337.367,1371.6c-10.972-98-40.756,0-40.756,0Z" transform="translate(-2043.872 -1302.04)" fill="#ffe733"/>
        <path id="Path_20" data-name="Path 20" d="M33.432,0C86.4,36.921,15.721,27.23,15.721,27.23Z" transform="matrix(0.454, -0.891, 0.891, 0.454, 348.671, 110.382)" fill="#ffe733"/>
        <circle id="Sunny" cx="71.5" cy="71.5" r="71.5" transform="translate(238 39)" fill="#ffe733"/>
        <circle id="Ellipse_14" data-name="Ellipse 14" cx="7.5" cy="7.5" r="7.5" transform="translate(281.124 70.34)" fill="#cb7c2c"/>
        <circle id="Ellipse_13" data-name="Ellipse 13" cx="7.5" cy="7.5" r="7.5" transform="translate(325.928 69.876)" fill="#cb7c2c"/>
        <path id="Path_15" data-name="Path 15" d="M24,12c1.622,3.775-5.373,12-12,12S-2.56,15.588,0,12,22.378,8.225,24,12Z" transform="translate(298.794 70.84)" fill="#ff719c"/>
      </g>
      <g id="Union_1-2" data-name="Union 1" transform="translate(843 540)" fill="#fff">
        <path d="M 186.9678039550781 132.5002136230469 L 39.09600067138672 132.5002136230469 C 38.35550308227539 132.5002136230469 37.6065559387207 132.4749908447266 36.86991882324219 132.4252166748047 L 36.83569717407227 132.4228973388672 L 36.80147552490234 132.42529296875 C 36.087890625 132.4749908447266 35.36250305175781 132.5002136230469 34.64550018310547 132.5002136230469 C 30.0428352355957 132.5002136230469 25.57747459411621 131.4935760498047 21.37350082397461 129.5082397460938 C 17.30861282348633 127.5886001586914 13.65697383880615 124.8392944335938 10.51994609832764 121.3367691040039 C 7.379390716552734 117.830207824707 4.913307189941406 113.745964050293 3.190223932266235 109.1974029541016 C 1.405112862586975 104.4851531982422 0.5000017881393433 99.47876739501953 0.5000017881393433 94.31729125976562 C 0.5000017881393433 89.15582275390625 1.405112862586975 84.14942932128906 3.190223932266235 79.43721008300781 C 4.913307189941406 74.88865661621094 7.379390716552734 70.80440521240234 10.51994609832764 67.2978515625 C 13.65697383880615 63.79529190063477 17.30861282348633 61.04601669311523 21.37350082397461 59.12637710571289 C 25.57747459411621 57.14104461669922 30.0428352355957 56.13440322875977 34.64550018310547 56.13440322875977 C 34.74669647216797 56.13440322875977 34.84647369384766 56.13493347167969 34.94744491577148 56.1358757019043 L 35.51033401489258 56.14120864868164 L 35.44925308227539 55.58162689208984 C 35.24769592285156 53.73573684692383 35.14550018310547 51.85251617431641 35.14550018310547 49.98421096801758 C 35.14550018310547 43.30176544189453 36.41533660888672 36.81965637207031 38.91978073120117 30.71787643432617 C 41.33847427368164 24.82496070861816 44.80091857910156 19.53273773193359 49.21094512939453 14.98818206787109 C 53.61994552612305 10.44468212127686 58.75372314453125 6.877710342407227 64.46964263916016 4.386349201202393 C 70.38613891601562 1.807571411132812 76.67116546630859 0.5000158548355103 83.15011596679688 0.5000158548355103 C 93.13844299316406 0.5000158548355103 102.713005065918 3.631626844406128 110.8387222290039 9.55634880065918 C 114.7537231445312 12.4108772277832 118.2261123657227 15.84262657165527 121.1594161987305 19.75629425048828 C 124.1218109130859 23.70870971679688 126.4765548706055 28.07662773132324 128.1582794189453 32.73873901367188 L 128.4155883789062 33.45204544067383 L 128.9698333740234 32.93454360961914 C 134.5599670410156 27.71501541137695 141.8190612792969 24.84048843383789 149.4098968505859 24.84048843383789 C 153.4923858642578 24.84048843383789 157.4525909423828 25.65415382385254 161.1804809570312 27.2589054107666 C 164.7820587158203 28.80929374694824 168.0168304443359 31.02904319763184 170.7949981689453 33.85651397705078 C 173.5737762451172 36.68462753295898 175.7554779052734 39.97798919677734 177.2794494628906 43.64509963989258 C 178.857421875 47.44207000732422 179.6575012207031 51.47584915161133 179.6575012207031 55.63440322875977 C 179.6575012207031 59.47012710571289 178.9734802246094 63.21229553222656 177.6243896484375 66.75693511962891 L 177.3664245605469 67.43479156494141 L 178.0916900634766 67.43479156494141 L 186.9678039550781 67.43479156494141 C 191.3597869873047 67.43479156494141 195.6201934814453 68.29490661621094 199.6306457519531 69.99124145507812 C 203.5045318603516 71.62979125976562 206.9837799072266 73.97562408447266 209.9717254638672 76.96356964111328 C 212.9596710205078 79.95151519775391 215.3054962158203 83.43076324462891 216.9440612792969 87.30465698242188 C 218.6403961181641 91.31512451171875 219.5005035400391 95.57551574707031 219.5005035400391 99.96749114990234 C 219.5005035400391 104.3596801757812 218.6403961181641 108.6202087402344 216.9440612792969 112.6307373046875 C 215.3054962158203 116.5046234130859 212.9596710205078 119.9838790893555 209.9717254638672 122.9717636108398 C 206.9838104248047 125.9596252441406 203.5045623779297 128.3054046630859 199.6306610107422 129.9439086914062 C 195.6202239990234 131.6401519775391 191.3598327636719 132.5002136230469 186.9678039550781 132.5002136230469 Z" stroke="none"/>
        <path d="M 186.9678039550781 132.0002136230469 C 191.2925567626953 132.0002136230469 195.4874114990234 131.1534271240234 199.4358978271484 129.4833984375 C 203.2501983642578 127.8701019287109 206.676025390625 125.5603179931641 209.6181640625 122.6182098388672 C 212.5603637695312 119.6760711669922 214.8702239990234 116.2502670288086 216.4835510253906 112.4359359741211 C 218.1536712646484 108.4874038696289 219.0005035400391 104.2924041748047 219.0005035400391 99.96749114990234 C 219.0005035400391 95.64279174804688 218.1536712646484 91.44792938232422 216.4835510253906 87.49943542480469 C 214.8702239990234 83.68515777587891 212.5603637695312 80.25932312011719 209.6181640625 77.31712341308594 C 206.6759796142578 74.37493133544922 203.2501678466797 72.06510162353516 199.4358673095703 70.45173645019531 C 195.4873657226562 68.78162384033203 191.2924957275391 67.93479156494141 186.9678039550781 67.93479156494141 L 178.0916900634766 67.93479156494141 L 176.6411437988281 67.93479156494141 L 177.1570892333984 66.5791015625 C 178.4844665527344 63.0914306640625 179.1575012207031 59.40912628173828 179.1575012207031 55.63440322875977 C 179.1575012207031 51.54204177856445 178.3702850341797 47.57282257080078 176.8177490234375 43.83695983886719 C 175.3184204101562 40.22920989990234 173.1720886230469 36.98921203613281 170.4383697509766 34.20695877075195 C 167.7058410644531 31.42593193054199 164.5245361328125 29.24279403686523 160.9827575683594 27.71815490722656 C 157.3176727294922 26.14046096801758 153.4239959716797 25.34048843383789 149.4098968505859 25.34048843383789 C 141.9461669921875 25.34048843383789 134.8082733154297 28.16723823547363 129.3110809326172 33.29998779296875 L 128.2025604248047 34.33501434326172 L 127.6879425048828 32.90837860107422 C 126.0230865478516 28.29298782348633 123.6919479370117 23.9688777923584 120.7593383789062 20.05615425109863 C 117.8558349609375 16.18229293823242 114.4189453125 12.78557109832764 110.5441436767578 9.960349082946777 C 102.5045547485352 4.09846019744873 93.0318603515625 1.00001585483551 83.15011596679688 1.00001585483551 C 76.74031066894531 1.00001585483551 70.52252960205078 2.293543577194214 64.66941833496094 4.844710350036621 C 59.01347351074219 7.309932708740234 53.93322372436523 10.8398494720459 49.56977844238281 15.33637714385986 C 45.20428085327148 19.83501625061035 41.77672576904297 25.07398796081543 39.3823356628418 30.90773773193359 C 36.90275192260742 36.94895935058594 35.64550018310547 43.36721038818359 35.64550018310547 49.98421096801758 C 35.64550018310547 51.8344612121582 35.74669647216797 53.69943237304688 35.94628143310547 55.52734756469727 L 36.06847381591797 56.64654541015625 L 34.94272232055664 56.63584899902344 C 34.84333419799805 56.63490295410156 34.74511337280273 56.63440322875977 34.64550018310547 56.63440322875977 C 30.11722373962402 56.63440322875977 25.72372436523438 57.62493133544922 21.58700180053711 59.57851409912109 C 17.58283424377441 61.46948623657227 13.98464107513428 64.17887878417969 10.89241886138916 67.63143157958984 C 7.793057441711426 71.09193420410156 5.358973979949951 75.12357330322266 3.657779455184937 79.61431884765625 C 1.894224047660828 84.26976776123047 1.000001788139343 89.21656799316406 1.000001788139343 94.31729125976562 C 1.000001788139343 99.41804504394531 1.894224047660828 104.3648223876953 3.657779455184937 109.020263671875 C 5.358973979949951 113.5110473632812 7.793057441711426 117.5426559448242 10.89241886138916 121.0031814575195 C 13.98464107513428 124.4557418823242 17.58283424377441 127.1651306152344 21.58700180053711 129.0561065673828 C 25.72372436523438 131.0096893310547 30.11722373962402 132.0002136230469 34.64550018310547 132.0002136230469 C 35.35097503662109 132.0002136230469 36.06464004516602 131.9754028320312 36.7667236328125 131.9264831542969 L 36.83516693115234 131.9217071533203 L 36.90364074707031 131.9263458251953 C 37.62908554077148 131.975341796875 38.36669540405273 132.0002136230469 39.09600067138672 132.0002136230469 L 186.9678039550781 132.0002136230469 M 186.9678039550781 133.0002136230469 L 39.09600067138672 133.0002136230469 C 38.33658599853516 133.0002136230469 37.58286285400391 132.9745178222656 36.83622360229492 132.924072265625 C 36.11183547973633 132.9745483398438 35.38127899169922 133.0002136230469 34.64550018310547 133.0002136230469 C 15.51150131225586 133.0002136230469 1.770019480318297e-06 115.6815185546875 1.770019480318297e-06 94.31729125976562 C 1.770019480318297e-06 72.95310211181641 15.51150131225586 55.63440322875977 34.64550018310547 55.63440322875977 C 34.7482795715332 55.63440322875977 34.84963989257812 55.63493347167969 34.95219802856445 55.63590621948242 C 34.74966812133789 53.78104400634766 34.64550018310547 51.89484786987305 34.64550018310547 49.98421096801758 C 34.64550018310547 22.37851524353027 56.36161422729492 1.584879646543413e-05 83.15011596679688 1.584879646543413e-05 C 103.9945297241211 1.584879646543413e-05 121.7680053710938 13.5498218536377 128.6286163330078 32.56907272338867 C 134.1011199951172 27.45937728881836 141.3977203369141 24.34048843383789 149.4098968505859 24.34048843383789 C 166.39111328125 24.34048843383789 180.1575012207031 38.35079193115234 180.1575012207031 55.63440322875977 C 180.1575012207031 59.61879348754883 179.4256439208984 63.42987823486328 178.0916900634766 66.93479156494141 L 186.9678039550781 66.93479156494141 C 205.2108001708984 66.93479156494141 220.0005035400391 81.72451782226562 220.0005035400391 99.96749114990234 C 220.0005035400391 118.2114028930664 205.2108001708984 133.0002136230469 186.9678039550781 133.0002136230469 Z" stroke="none" fill="#cb7c2c"/>
      </g>
    </g>
    <g id="rainbow" transform="translate(3101.712 2874.695) rotate(62)">
      <path id="Path_22" data-name="Path 22" d="M1.75,126.25h15a109.622,109.622,0,0,1,109.5-109.5v-15A124.5,124.5,0,0,0,1.75,126.25Z" fill="red"/>
      <path id="Path_23" data-name="Path 23" d="M16.75,126.25h15a94.6,94.6,0,0,1,94.5-94.5v-15a109.622,109.622,0,0,0-109.5,109.5Z" fill="#ffc426"/>
      <path id="Path_24" data-name="Path 24" d="M61.75,126.25h15a49.555,49.555,0,0,1,49.5-49.5v-15a64.567,64.567,0,0,0-64.5,64.5Z" fill="#7dea3a"/>
      <path id="Path_25" data-name="Path 25" d="M31.75,126.25h15a79.585,79.585,0,0,1,79.5-79.5v-15a94.6,94.6,0,0,0-94.5,94.5Z" fill="#ffff1d"/>
      <path id="Path_26" data-name="Path 26" d="M46.75,126.25h15a64.567,64.567,0,0,1,64.5-64.5v-15a79.585,79.585,0,0,0-79.5,79.5Z" fill="#70efef"/>
    </g>
  </g>
</svg>
